# xmcd
#
# Track frame offsets: 
#        150
#        35995
#        70232
#        93590
#        132297
#        152092
#        187995
#        205255
#
# Disc length: 3055 seconds
#
# Revision: 1
# Processed by: cddbd v1.5.2PL0 Copyright (c) Steve Scherf et al.
# Submitted via: ExactAudioCopy v0.99pb4
#
DISCID=710bed08
DTITLE=Polifemo - Polifemo II
DYEAR=1977
DGENRE=Progressive Rock
TTITLE0=El Sueño Termino
TTITLE1=Viene Del Sol
TTITLE2=Superhombre
TTITLE3=Tropico de Cancer
TTITLE4=Dualidad
TTITLE5=Pie
TTITLE6=Oye Dios Que Me Has Dado (bonus track)
TTITLE7=Buzios Blues (bonus track)
EXTD=
EXTT0=
EXTT1=
EXTT2=
EXTT3=
EXTT4=
EXTT5=
EXTT6=
EXTT7=
PLAYORDER=
